<?xml version="1.0" encoding="UTF-8"?>
<svg xmlns="http://www.w3.org/2000/svg" width="1024" height="1024" viewBox="0 0 1024 1024" fill="none">
  <defs>
    <clipPath id="plate">
      <path d="M 1024.00 512.00 L 1023.75 665.32 L 1023.01 714.20 L 1021.78 749.62 L 1020.04 778.30 L 1017.81 802.74 L 1015.06 824.18 L 1011.81 843.33 L 1008.04 860.66 L 1003.74 876.47 L 998.90 890.99 L 993.52 904.36 L 987.56 916.73 L 981.03 928.18 L 973.90 938.79 L 966.14 948.62 L 957.72 957.72 L 948.62 966.14 L 938.79 973.90 L 928.18 981.03 L 916.73 987.56 L 904.36 993.52 L 890.99 998.90 L 876.47 1003.74 L 860.66 1008.04 L 843.33 1011.81 L 824.18 1015.06 L 802.74 1017.81 L 778.30 1020.04 L 749.62 1021.78 L 714.20 1023.01 L 665.32 1023.75 L 512.00 1024.00 L 358.68 1023.75 L 309.80 1023.01 L 274.38 1021.78 L 245.70 1020.04 L 221.26 1017.81 L 199.82 1015.06 L 180.67 1011.81 L 163.34 1008.04 L 147.53 1003.74 L 133.01 998.90 L 119.64 993.52 L 107.27 987.56 L 95.82 981.03 L 85.21 973.90 L 75.38 966.14 L 66.28 957.72 L 57.86 948.62 L 50.10 938.79 L 42.97 928.18 L 36.44 916.73 L 30.48 904.36 L 25.10 890.99 L 20.26 876.47 L 15.96 860.66 L 12.19 843.33 L 8.94 824.18 L 6.19 802.74 L 3.96 778.30 L 2.22 749.62 L 0.99 714.20 L 0.25 665.32 L 0.00 512.00 L 0.25 358.68 L 0.99 309.80 L 2.22 274.38 L 3.96 245.70 L 6.19 221.26 L 8.94 199.82 L 12.19 180.67 L 15.96 163.34 L 20.26 147.53 L 25.10 133.01 L 30.48 119.64 L 36.44 107.27 L 42.97 95.82 L 50.10 85.21 L 57.86 75.38 L 66.28 66.28 L 75.38 57.86 L 85.21 50.10 L 95.82 42.97 L 107.27 36.44 L 119.64 30.48 L 133.01 25.10 L 147.53 20.26 L 163.34 15.96 L 180.67 12.19 L 199.82 8.94 L 221.26 6.19 L 245.70 3.96 L 274.38 2.22 L 309.80 0.99 L 358.68 0.25 L 512.00 0.00 L 665.32 0.25 L 714.20 0.99 L 749.62 2.22 L 778.30 3.96 L 802.74 6.19 L 824.18 8.94 L 843.33 12.19 L 860.66 15.96 L 876.47 20.26 L 890.99 25.10 L 904.36 30.48 L 916.73 36.44 L 928.18 42.97 L 938.79 50.10 L 948.62 57.86 L 957.72 66.28 L 966.14 75.38 L 973.90 85.21 L 981.03 95.82 L 987.56 107.27 L 993.52 119.64 L 998.90 133.01 L 1003.74 147.53 L 1008.04 163.34 L 1011.81 180.67 L 1015.06 199.82 L 1017.81 221.26 L 1020.04 245.70 L 1021.78 274.38 L 1023.01 309.80 L 1023.75 358.68 L 1024.00 512.00 Z"/>
    </clipPath>
  </defs>
  <!-- Transparent outside the plate so Dock/macOS mask look native -->
  <g clip-path="url(#plate)">
    <rect width="1024" height="1024" fill="#000000"/>
    <circle cx="372.36" cy="232.73" r="18.99" fill="#FFFFFF"/>
    <circle cx="428.22" cy="232.73" r="18.99" fill="#FFFFFF"/>
    <circle cx="484.07" cy="232.73" r="18.99" fill="#FFFFFF"/>
    <circle cx="539.93" cy="232.73" r="18.99" fill="#FFFFFF"/>
    <circle cx="595.78" cy="232.73" r="18.99" fill="#FFFFFF"/>
    <circle cx="651.64" cy="232.73" r="18.99" fill="#FFFFFF"/>
    <circle cx="316.51" cy="288.58" r="18.99" fill="#FFFFFF"/>
    <circle cx="372.36" cy="288.58" r="18.99" fill="#FFFFFF"/>
    <circle cx="428.22" cy="288.58" r="18.99" fill="#FFFFFF"/>
    <circle cx="484.07" cy="288.58" r="18.99" fill="#FFFFFF"/>
    <circle cx="539.93" cy="288.58" r="18.99" fill="#FFFFFF"/>
    <circle cx="595.78" cy="288.58" r="18.99" fill="#FFFFFF"/>
    <circle cx="651.64" cy="288.58" r="18.99" fill="#FFFFFF"/>
    <circle cx="707.49" cy="288.58" r="18.99" fill="#FFFFFF"/>
    <circle cx="260.65" cy="344.44" r="18.99" fill="#FFFFFF"/>
    <circle cx="316.51" cy="344.44" r="18.99" fill="#FFFFFF"/>
    <circle cx="372.36" cy="344.44" r="18.99" fill="#FFFFFF"/>
    <circle cx="651.64" cy="344.44" r="18.99" fill="#FFFFFF"/>
    <circle cx="707.49" cy="344.44" r="18.99" fill="#FFFFFF"/>
    <circle cx="763.35" cy="344.44" r="18.99" fill="#FFFFFF"/>
    <circle cx="260.65" cy="400.29" r="18.99" fill="#FFFFFF"/>
    <circle cx="316.51" cy="400.29" r="18.99" fill="#FFFFFF"/>
    <circle cx="707.49" cy="400.29" r="18.99" fill="#FFFFFF"/>
    <circle cx="763.35" cy="400.29" r="18.99" fill="#FFFFFF"/>
    <circle cx="260.65" cy="456.15" r="18.99" fill="#FFFFFF"/>
    <circle cx="316.51" cy="456.15" r="18.99" fill="#FFFFFF"/>
    <circle cx="260.65" cy="512.00" r="18.99" fill="#FFFFFF"/>
    <circle cx="316.51" cy="512.00" r="18.99" fill="#FFFFFF"/>
    <circle cx="707.49" cy="512.00" r="18.99" fill="#D71921"/>
    <circle cx="260.65" cy="567.85" r="18.99" fill="#FFFFFF"/>
    <circle cx="316.51" cy="567.85" r="18.99" fill="#FFFFFF"/>
    <circle cx="260.65" cy="623.71" r="18.99" fill="#FFFFFF"/>
    <circle cx="316.51" cy="623.71" r="18.99" fill="#FFFFFF"/>
    <circle cx="707.49" cy="623.71" r="18.99" fill="#FFFFFF"/>
    <circle cx="763.35" cy="623.71" r="18.99" fill="#FFFFFF"/>
    <circle cx="260.65" cy="679.56" r="18.99" fill="#FFFFFF"/>
    <circle cx="316.51" cy="679.56" r="18.99" fill="#FFFFFF"/>
    <circle cx="372.36" cy="679.56" r="18.99" fill="#FFFFFF"/>
    <circle cx="651.64" cy="679.56" r="18.99" fill="#FFFFFF"/>
    <circle cx="707.49" cy="679.56" r="18.99" fill="#FFFFFF"/>
    <circle cx="763.35" cy="679.56" r="18.99" fill="#FFFFFF"/>
    <circle cx="316.51" cy="735.42" r="18.99" fill="#FFFFFF"/>
    <circle cx="372.36" cy="735.42" r="18.99" fill="#FFFFFF"/>
    <circle cx="428.22" cy="735.42" r="18.99" fill="#FFFFFF"/>
    <circle cx="484.07" cy="735.42" r="18.99" fill="#FFFFFF"/>
    <circle cx="539.93" cy="735.42" r="18.99" fill="#FFFFFF"/>
    <circle cx="595.78" cy="735.42" r="18.99" fill="#FFFFFF"/>
    <circle cx="651.64" cy="735.42" r="18.99" fill="#FFFFFF"/>
    <circle cx="707.49" cy="735.42" r="18.99" fill="#FFFFFF"/>
    <circle cx="372.36" cy="791.27" r="18.99" fill="#FFFFFF"/>
    <circle cx="428.22" cy="791.27" r="18.99" fill="#FFFFFF"/>
    <circle cx="484.07" cy="791.27" r="18.99" fill="#FFFFFF"/>
    <circle cx="539.93" cy="791.27" r="18.99" fill="#FFFFFF"/>
    <circle cx="595.78" cy="791.27" r="18.99" fill="#FFFFFF"/>
    <circle cx="651.64" cy="791.27" r="18.99" fill="#FFFFFF"/>
  </g>
</svg>
